<?xml version="1.0" encoding="utf-8"?>
<!-- Svg Vector Icons : http://www.onlinewebfonts.com/icon -->
<!DOCTYPE svg PUBLIC "-//W3C//DTD SVG 1.1//EN" "http://www.w3.org/Graphics/SVG/1.1/DTD/svg11.dtd">
<svg version="1.1" xmlns="http://www.w3.org/2000/svg" xmlns:xlink="http://www.w3.org/1999/xlink" x="0px" y="0px" viewBox="0 0 256 256" enable-background="new 0 0 256 256" xml:space="preserve">
<metadata> Svg Vector Icons : http://www.onlinewebfonts.com/icon </metadata>
<g><g><g><path fill="#000000" d="M191.9,10.8c-3.1,1.2-4.7,2.4-8.6,6.4l-4,4.1l4.1,3.4c11.7,9.9,21.5,22.6,28.4,37.1c7.8,16.3,11.1,30.8,11,49.3c0,17.9-3.6,33.1-11.4,49.1c-22.1,45-71.7,70-121.4,61.1c-24.7-4.4-47.9-17.7-64.5-36.7l-4.4-5.1l-4,4.2c-9.5,10.1-9.4,15.5,0.5,25.2c21.2,20.7,48.9,33.5,79.5,36.5c8,0.8,26.6,0.4,34.1-0.8c7.4-1.1,19.8-4.3,26.3-6.7c6.7-2.5,19.4-8.7,25.2-12.4c8.3-5.3,16.4-11.7,23.9-19.3c11.5-11.5,19-22,26-36.3c6.3-12.9,10.2-25.5,12.4-39.6c1.2-7.8,1.4-30.3,0.3-37.6c-3.8-25.4-13.4-47.7-29.1-67.2c-6.1-7.7-12.4-13.5-15.5-14.6C197.8,10,194.2,9.9,191.9,10.8z"/><path fill="#000000" d="M100.6,100.9l-68.2,68.2l3.3,4.1c14.4,17.1,33.7,28.8,55.8,33.4c8.6,1.9,23.6,2.3,32.8,1c21.8-3.1,41-12.9,56.5-28.9c14.5-14.9,23.6-33.5,26.5-54c1-7,1-20.5-0.1-27.7c-2.9-20-11.8-38.3-25.8-52.9c-4.4-4.6-11.8-11.3-12.5-11.3C168.8,32.8,138.1,63.5,100.6,100.9z M169.4,66.3c1.8,0.7,4.1,2.8,5.1,4.7c1.1,2.2,0.9,6.6-0.5,8.7c-2.8,4.2-9.1,7.3-14.9,7.4c-3.2,0-3.7-0.1-4.6-1.2c-2.2-2.6-0.2-10.8,4-16.2C160.9,66.4,165.7,64.9,169.4,66.3z M182.2,110c3.3,1.6,5,4.7,4.7,8.6c-0.4,5.6-4.9,9.3-10.3,8.6c-5.6-0.8-12.4-4.5-14-7.7c-0.8-1.6-0.8-2-0.2-3.5c0.9-2.2,3.9-4.3,8.4-5.8C175.3,108.7,179.2,108.6,182.2,110z M158.9,148.5c8.3,3.9,11.1,9.8,7.3,15.7c-2.3,3.5-7.2,5-11.2,3.3c-3.4-1.4-7.4-7.4-8.6-13c-0.8-3.3-0.3-5.6,1.4-7C149.8,146,154.4,146.4,158.9,148.5z M85.7,154.7c1.1,0.9,1.2,1.4,1.2,4.5c-0.1,5.8-3.2,12.1-7.4,14.9c-2.1,1.4-6.5,1.6-8.7,0.5c-4.7-2.5-6.5-7.7-4.2-12.5C69.4,156.4,81.8,151.6,85.7,154.7z M120.5,163.4c2.5,1.6,5.9,8.4,6.6,13.1c1.2,7.9-7.1,13.5-14,9.4c-4.3-2.5-5.5-8.1-3-14.9C112.8,163.3,116.3,160.7,120.5,163.4z"/></g></g></g>
</svg>